<svg xmlns="http://www.w3.org/2000/svg" viewBox="0 0 547 240" width="547" height="240" role="img" aria-label="C3D Field Kit">
<rect width="547" height="240" fill="#0D1B2A"/>
<clipPath id="plate180_30_30"><rect x="30.00" y="30.00" width="180.00" height="180.00" rx="39.60"/></clipPath>
<rect x="30.00" y="30.00" width="180.00" height="180.00" rx="39.60" fill="#0D1B2A"/>
<g clip-path="url(#plate180_30_30)" stroke="#FFFFFF" stroke-opacity="0.08" stroke-width="0.90">
<line x1="52.50" y1="30.00" x2="52.50" y2="210.00"/>
<line x1="30.00" y1="52.50" x2="210.00" y2="52.50"/>
<line x1="75.00" y1="30.00" x2="75.00" y2="210.00"/>
<line x1="30.00" y1="75.00" x2="210.00" y2="75.00"/>
<line x1="97.50" y1="30.00" x2="97.50" y2="210.00"/>
<line x1="30.00" y1="97.50" x2="210.00" y2="97.50"/>
<line x1="120.00" y1="30.00" x2="120.00" y2="210.00"/>
<line x1="30.00" y1="120.00" x2="210.00" y2="120.00"/>
<line x1="142.50" y1="30.00" x2="142.50" y2="210.00"/>
<line x1="30.00" y1="142.50" x2="210.00" y2="142.50"/>
<line x1="165.00" y1="30.00" x2="165.00" y2="210.00"/>
<line x1="30.00" y1="165.00" x2="210.00" y2="165.00"/>
<line x1="187.50" y1="30.00" x2="187.50" y2="210.00"/>
<line x1="30.00" y1="187.50" x2="210.00" y2="187.50"/>
</g>
<g stroke="#4FB67A" stroke-opacity="0.6" stroke-width="4.68" stroke-linecap="round">
<line x1="46.20" y1="116.40" x2="193.80" y2="116.40"/>
<line x1="121.80" y1="46.20" x2="121.80" y2="193.80"/>
</g>
<polygon points="58.80,112.80 98.40,62.40 177.60,84.00 166.80,159.60 91.20,177.60" fill="none" stroke="#F4F8FA" stroke-width="13.68" stroke-linejoin="round"/>
<circle cx="121.80" cy="116.40" r="18.00" fill="none" stroke="#4FB67A" stroke-width="8.64"/>
<circle cx="121.80" cy="116.40" r="5.76" fill="#4FB67A"/>
<g fill="#F4F8FA" transform="translate(250.00,122.00) scale(0.05365,-0.05365)">
<path transform="translate(0.0,0)" d="M656 -15Q489 -15 371.5 48.5Q254 112 192.0 233.5Q130 355 130 527V926Q130 1099 192.0 1220.0Q254 1341 371.5 1405.0Q489 1469 656 1469Q794 1469 901.5 1410.0Q1009 1351 1079.5 1239.0Q1150 1127 1177 967H893Q877 1040 843.5 1090.5Q810 1141 762.5 1168.0Q715 1195 656 1195Q541 1195 477.5 1124.5Q414 1054 414 926V527Q414 399 477.5 329.0Q541 259 656 259Q746 259 808.0 318.5Q870 378 893 487H1177Q1149 328 1078.5 215.5Q1008 103 901.0 44.0Q794 -15 656 -15Z"/>
<path transform="translate(1267.0,0)" d="M536 -15Q405 -15 302.0 33.0Q199 81 138.0 172.0Q77 263 70 392H353Q363 325 403.0 288.0Q443 251 506 251Q584 251 626.5 294.5Q669 338 669 417V451Q669 534 634.5 579.0Q600 624 536 624H413V888H536Q588 888 616.5 927.5Q645 967 645 1038V1063Q645 1130 613.5 1166.5Q582 1203 525 1203Q469 1203 429.5 1161.0Q390 1119 376 1042H94Q112 1245 235.0 1357.0Q358 1469 535 1469Q728 1469 833.5 1370.5Q939 1272 939 1091V1047Q939 946 888.0 871.0Q837 796 743 759Q848 735 905.5 649.0Q963 563 963 430V386Q963 195 851.0 90.0Q739 -15 536 -15Z"/>
<path transform="translate(2350.0,0)" d="M298 0V264H647Q782 264 856.0 329.5Q930 395 930 513V941Q930 1060 856.0 1125.0Q782 1190 647 1190H298V1454H641Q915 1454 1064.5 1317.5Q1214 1181 1214 933V521Q1214 366 1150.0 248.5Q1086 131 958.5 65.5Q831 0 640 0ZM160 0V1454H434V0Z"/>
</g>
<rect x="250" y="140" width="96" height="8" fill="#4FB67A"/>
<g fill="#B9CBD6" transform="translate(250.00,202.00) scale(0.02751,-0.02751)">
<path transform="translate(0.0,0)" d="M130.738525390625 0V1454H359.338134765625V0ZM233.5986328125 599.7001953125V818.2998046875H831.453857421875V599.7001953125ZM233.5986328125 1235.400390625V1454H910.252685546875V1235.400390625Z"/>
<path transform="translate(1167.3,0)" d="M351.218017578125 1454V0H120.218505859375V1454Z"/>
<path transform="translate(1863.6,0)" d="M130.738525390625 0V1454H359.338134765625V0ZM232.5986328125 0V219.6396484375H918.852294921875V0ZM232.5986328125 612.440185546875V831.81982421875H840.053466796875V612.440185546875ZM232.5986328125 1234.3603515625V1454H918.852294921875V1234.3603515625Z"/>
<path transform="translate(3078.8,0)" d="M130.738525390625 0V1454H359.338134765625V0ZM237.538330078125 0V218.599609375H908.451904296875V0Z"/>
<path transform="translate(4260.1,0)" d="M271.338623046875 0V218.599609375H551.31640625Q648.87451171875 218.599609375 702.1734619140625 270.4261872581554Q755.472412109375 322.25276514131076 755.472412109375 416.016357421875V1037.983642578125Q755.472412109375 1132.2472348586894 702.1734619140625 1183.8238127418447Q648.87451171875 1235.400390625 551.31640625 1235.400390625H271.338623046875V1454H553.376708984375Q761.2744140625 1454 874.8631591796875 1345.7110595703125Q988.451904296875 1237.422119140625 988.451904296875 1040.1240234375V413.8759765625Q988.451904296875 285.28750809712625 937.992431640625 192.36323647043812Q887.532958984375 99.43896484375 790.180440650796 49.719482421875Q692.8279223172169 0 552.376708984375 0ZM130.738525390625 0V1454H359.338134765625V0Z"/>
<path transform="translate(6293.7,0)" d="M295.738525390625 261.339599609375 298.69873046875 631.60107421875 765.333251953125 1454H1035.252197265625ZM130.738525390625 0V1454H359.338134765625V0ZM823.57275390625 0 476.476318359375 771.340576171875 649.495361328125 920.340576171875 1088.451904296875 0Z"/>
<path transform="translate(7604.0,0)" d="M351.218017578125 1454V0H120.218505859375V1454Z"/>
<path transform="translate(8300.2,0)" d="M305.8974609375 0V1334.219970703125H534.4970703125V0ZM-17.259521484375 1235.400390625V1454H857.654052734375V1235.400390625Z"/>
</g>
</svg>
